<svg aria-label="Tourism Vernon" width="360" height="97" viewBox="0 0 360 97" fill="none" xmlns="http://www.w3.org/2000/svg">
    <path d="M359.8 82.0401C359.24 81.2101 359.34 77.7101 359.94 70.8501C360.55 63.7701 354.55 60.8701 349.93 60.8701C344.72 60.8701 341.57 63.1301 340.23 64.8501H340.11C340.11 64.8501 340.2 63.1401 340.14 62.0501C340.13 61.7401 340.03 61.3501 339.45 61.3101C339.04 61.2901 335.41 61.3101 334.93 61.4001C334.47 61.5001 334.45 61.7101 334.51 62.0501C335.6 65.3901 335.19 78.3201 334.89 81.9101C334.86 82.4401 334.99 82.7401 335.23 82.7401H340.14C340.45 82.6901 340.77 82.5701 340.41 81.6701C339.88 80.3001 339.56 72.8201 340.14 70.0001C341.02 65.7101 344.82 63.0801 348.38 63.1001C353.13 63.1301 355.67 67.3501 355.05 72.4701C354.44 77.4701 354.22 80.5501 354.43 82.0001C354.46 82.3101 354.63 82.7001 355.27 82.7601C355.92 82.8301 358.08 82.7501 359.36 82.7401C359.63 82.7401 360.35 82.8701 359.8 82.0401Z" fill="#1A2A33"></path>
    <path d="M188.68 42.3897C183.18 48.8597 173.11 65.6797 162.94 68.2297C156.56 69.8397 148.55 54.8397 144.34 48.8797C142.04 45.6297 140.24 45.0997 141.9 51.3597C144.94 62.8997 157.3 84.8297 163.28 83.8097C169.26 82.7597 190.41 49.1997 192.78 41.9997C193.5 39.7997 191.58 38.9897 188.68 42.3897Z" fill="#1A2A33"></path>
    <path d="M206.61 60.6702C197.6 60.6702 192.01 65.7202 192.01 72.1602C192.01 78.6002 197.77 82.8802 207.24 82.8802C211.55 82.8802 214.74 82.3002 216.81 81.7302C217.09 81.6502 217.73 81.3802 217.65 80.8402C217.55 80.3102 217.31 79.0902 217.06 78.7402C216.81 78.3702 216.25 78.5902 216.04 78.7302C214.4 79.8302 211.59 80.8402 208 80.8402C202.38 80.8402 197.58 77.6702 197.42 72.4802C197.42 72.4802 217.13 72.5002 217.96 72.5002C218.79 72.5002 219.3 71.8802 219.3 70.6802C219.3 66.7802 216.68 60.6602 206.59 60.6602L206.61 60.6702ZM197.52 69.7302C197.97 67.0602 200.25 62.5602 206 62.5602C212.28 62.5602 213.97 67.2702 213.91 69.7302H197.52Z" fill="#1A2A33"></path>
    <path d="M247.08 60.5698C246.7 60.5398 246.34 60.5098 245.91 60.5098C242.07 60.5098 238.56 62.3498 237.12 65.2498H236.93C236.93 65.2498 236.71 62.1298 236.72 61.7298C236.72 61.3398 236.59 61.0698 236.2 61.0098C235.81 60.9398 232.6 60.9498 232.18 61.0098C231.75 61.0598 231.56 61.1898 231.71 61.8098C231.77 62.0798 231.91 65.3298 231.91 67.7598C231.91 67.7598 231.91 81.3398 231.91 81.8698C231.89 82.3898 232.13 82.6598 232.5 82.6498C232.89 82.6398 237.1 82.6698 237.57 82.6698C238.03 82.6498 238.18 82.0798 238.12 81.8098C237.6 79.8398 236.51 73.9698 237.83 69.2498C238.64 66.3698 241.48 64.2398 245.51 64.2398C246.14 64.2398 246.66 64.2698 247.14 64.3098C247.25 64.3198 247.45 64.1498 247.46 63.8998C247.48 63.4498 247.48 61.3098 247.46 60.9698C247.44 60.6298 247.21 60.5898 247.07 60.5798L247.08 60.5698Z" fill="#1A2A33"></path>
    <path d="M284.31 70.7398C284.92 63.6498 278.92 60.7598 274.32 60.7598C269.09 60.7598 265.95 63.0098 264.61 64.7398H264.49C264.49 64.7398 264.58 63.0298 264.52 61.9398C264.5 61.6298 264.4 61.2298 263.83 61.1998C263.41 61.1698 259.78 61.1998 259.31 61.2898C258.84 61.3698 258.83 61.5898 258.88 61.9298C259.98 65.2698 259.56 78.1998 259.26 81.7898C259.23 82.3298 259.37 82.6298 259.61 82.6298C260.58 82.6298 263.12 82.6298 264.52 82.6298C264.83 82.5698 265.15 82.4498 264.79 81.5598C264.26 80.1898 263.93 72.6998 264.51 69.8798C265.41 65.5898 269.2 62.9698 272.76 62.9798C277.51 62.9998 280.05 67.2198 279.43 72.3498C278.84 77.3398 278.61 80.4298 278.81 81.8798C278.86 82.1798 279.02 82.5798 279.66 82.6398C280.31 82.6898 282.48 82.6198 283.74 82.6198C284.01 82.6198 284.72 82.7498 284.18 81.9098C283.63 81.0798 283.73 77.5898 284.32 70.7198L284.31 70.7398Z" fill="#1A2A33"></path>
    <path d="M319.37 63.0801C317.55 61.9201 315.46 61.1401 313.37 60.7401C313.11 60.6901 312.84 60.6401 312.58 60.6101C312.45 60.5901 312.31 60.5701 312.18 60.5501C311.87 60.5101 311.58 60.4901 311.28 60.4601C310.93 60.4301 310.58 60.4201 310.21 60.4101C310.13 60.4101 310.07 60.3901 309.98 60.3901H309.92C309.84 60.3901 309.77 60.4101 309.69 60.4101C309.32 60.4201 308.98 60.4301 308.63 60.4601C308.32 60.4901 308.03 60.5101 307.72 60.5501C307.59 60.5701 307.45 60.5901 307.33 60.6101C307.06 60.6501 306.8 60.7001 306.53 60.7401C304.45 61.1401 302.35 61.9201 300.55 63.0801C298.16 64.6001 296.29 66.8101 295.62 69.7801C295.45 70.5201 295.35 71.2901 295.35 72.1401C295.35 72.9901 295.46 73.7701 295.66 74.5301C296.38 77.2701 298.35 79.4801 300.91 80.9801C303.29 82.3701 306.19 83.1501 309.13 83.1501C309.42 83.1501 309.68 83.1301 309.96 83.1201C310.25 83.1301 310.5 83.1501 310.79 83.1501C313.71 83.1501 316.62 82.3701 319.01 80.9801C321.57 79.4801 323.53 77.2701 324.26 74.5301C324.46 73.7701 324.57 72.9801 324.57 72.1401C324.57 71.3001 324.46 70.5201 324.29 69.7801C323.63 66.8201 321.76 64.6101 319.38 63.0801H319.37ZM319.86 72.4801C319.75 73.3801 319.46 74.3301 319.07 75.2601C318.52 76.5201 317.77 77.7101 316.83 78.6201C316.1 79.3101 315.21 79.9001 314.12 80.3201C314.03 80.3601 313.94 80.3901 313.85 80.4201C313.49 80.5501 313.11 80.6701 312.7 80.7701C312.69 80.7701 312.66 80.7701 312.63 80.7801C312.31 80.8501 311.97 80.9101 311.62 80.9601C311.56 80.9601 311.5 80.9701 311.44 80.9801C311.13 81.0101 310.82 81.0401 310.49 81.0601C310.3 81.0601 310.12 81.0601 309.94 81.0601C309.76 81.0601 309.57 81.0601 309.38 81.0601C309.06 81.0401 308.75 81.0201 308.44 80.9801C308.38 80.9801 308.33 80.9701 308.27 80.9601C307.92 80.9101 307.58 80.8501 307.25 80.7801C307.22 80.7801 307.21 80.7701 307.18 80.7701C306.77 80.6801 306.4 80.5501 306.03 80.4201C305.94 80.3801 305.86 80.3601 305.77 80.3201C304.68 79.9001 303.78 79.3101 303.05 78.6201C302.1 77.7101 301.35 76.5101 300.81 75.2601C300.41 74.3401 300.13 73.3901 300.02 72.4801C299.75 70.0901 300.3 67.9001 301.52 66.1701C302.74 64.4701 304.5 63.1801 307.35 62.6601C308.12 62.5101 308.99 62.4401 309.94 62.4201C310.89 62.4401 311.75 62.5101 312.54 62.6601C315.38 63.1801 317.14 64.4701 318.35 66.1701C319.58 67.9001 320.13 70.1001 319.85 72.4801H319.86Z" fill="#1A2A33"></path>
    <path d="M232.82 30.9497H221.19V33.2997H225.58V46.3497H228.39V33.2997H232.82V30.9497Z" fill="#1A2A33"></path>
    <path d="M242.8 30.6699C238.46 30.6699 235.47 34.0099 235.47 38.7599C235.47 43.2699 238.21 46.5999 242.57 46.5999C246.93 46.5999 249.93 43.6499 249.93 38.4899C249.93 34.0799 247.28 30.6799 242.8 30.6799V30.6699ZM242.71 44.3299C240.01 44.3299 238.44 41.8399 238.44 38.6899C238.44 35.5399 239.93 32.9299 242.71 32.9299C245.49 32.9299 246.96 35.6699 246.96 38.5799C246.96 41.7999 245.43 44.3399 242.71 44.3399V44.3299Z" fill="#1A2A33"></path>
    <path d="M266.63 39.7497V30.9497H263.82V39.9297C263.82 42.9497 262.61 44.3397 260.57 44.3397C258.67 44.3397 257.41 42.9497 257.41 39.9297V30.9497H254.6V39.7697C254.6 44.6197 256.91 46.6097 260.47 46.6097C264.03 46.6097 266.62 44.5097 266.62 39.7497H266.63Z" fill="#1A2A33"></path>
    <path d="M274.92 40.0201H276.34C277.94 40.0701 278.65 40.7101 279.1 42.7101C279.52 44.6301 279.9 45.8901 280.13 46.3501H283.01C282.71 45.7601 282.3 43.9701 281.8 42.0501C281.43 40.5601 280.77 39.5001 279.65 39.0801V39.0101C281.11 38.5101 282.46 37.1601 282.46 35.1701C282.46 33.8501 281.98 32.7701 281.13 32.0601C280.08 31.1901 278.6 30.8301 276.38 30.8301C274.76 30.8301 273.2 30.9701 272.13 31.1701V46.3501H274.91V40.0201H274.92ZM274.92 33.1001C275.2 33.0301 275.77 32.9601 276.66 32.9601C278.48 32.9601 279.65 33.7601 279.65 35.4301C279.65 36.9601 278.48 37.9701 276.59 37.9701H274.92V33.1001Z" fill="#1A2A33"></path>
    <path d="M290.23 30.9497H287.42V46.3497H290.23V30.9497Z" fill="#1A2A33"></path>
    <path d="M299.41 44.2699C297.97 44.2699 296.58 43.8099 295.69 43.2899L295.05 45.6199C295.9 46.1499 297.59 46.5999 299.23 46.5999C303.18 46.5999 305.06 44.4499 305.06 41.9599C305.06 39.7399 303.78 38.3999 301.11 37.3899C299.06 36.5899 298.16 36.0399 298.16 34.8499C298.16 33.9399 298.91 32.9999 300.7 32.9999C302.14 32.9999 303.21 33.4399 303.78 33.7299L304.44 31.4699C303.64 31.0599 302.43 30.6899 300.76 30.6899C297.4 30.6899 295.3 32.5899 295.3 35.1299C295.3 37.3399 296.92 38.6899 299.48 39.6099C301.42 40.3199 302.2 40.9999 302.2 42.1699C302.2 43.4299 301.2 44.2699 299.41 44.2699Z" fill="#1A2A33"></path>
    <path d="M321.37 30.9499L319.25 37.1199C318.66 38.9199 318.13 40.8199 317.72 42.4899H317.65C317.26 40.7699 316.78 38.9499 316.23 37.1399L314.22 30.9399H310.52L309.49 46.3399H312.12L312.46 40.1499C312.57 38.0499 312.66 35.5999 312.73 33.5899H312.78C313.19 35.5099 313.74 37.6099 314.34 39.5799L316.39 46.1599H318.54L320.8 39.4899C321.49 37.5499 322.12 35.4699 322.63 33.5999H322.7C322.68 35.6799 322.79 38.0799 322.89 40.0699L323.19 46.3499H325.93L325.03 30.9499H321.38H321.37Z" fill="#1A2A33"></path>
    <path d="M73.4399 2.49971C71.7499 0.819713 69.8899 0.899713 67.9099 2.06971C60.6899 6.33971 51.8999 25.3197 44.2999 28.3897C27.6799 35.0797 20.8099 8.98971 19.7499 16.5997C19.2699 20.0097 26.2199 31.3197 38.9799 40.1497C42.6899 42.7197 46.8499 45.0797 51.5099 46.9597C62.0699 34.2097 75.8699 4.92971 73.4399 2.50971V2.49971Z" fill="#1A2A33"></path>
    <path d="M38.42 14.3199C42.37 14.0199 45.32 10.5599 45.01 6.61992C44.71 2.65992 41.25 -0.290085 37.31 0.0199155C33.36 0.319916 30.4 3.78992 30.72 7.73992C31.02 11.6699 34.47 14.6199 38.43 14.3199H38.42Z" fill="#1A2A33"></path>
    <path d="M0.17964 56.4301C-0.43036 58.7201 0.55964 60.3001 2.56964 61.4301C9.87964 65.5501 30.7196 63.6801 37.1696 68.7301C51.2696 79.7701 32.1096 98.7701 39.2296 95.8901C42.4196 94.6001 48.7296 82.9301 50.0096 67.4901C50.3796 62.9901 50.3496 58.1801 49.6496 53.2001C33.3196 50.4301 1.06964 53.1101 0.18964 56.4301H0.17964Z" fill="#1A2A33"></path>
    <path d="M101.7 52.77C98.1398 51.06 93.8599 52.58 92.1399 56.15C90.4299 59.72 91.9398 64.01 95.5198 65.71C99.0998 67.43 103.38 65.91 105.08 62.34C106.8 58.77 105.28 54.48 101.7 52.77Z" fill="#1A2A33"></path>
    <path d="M77.0298 54.2199C79.5398 36.4799 105.57 43.5798 99.5198 38.8498C96.7498 36.6898 83.0098 37.1099 68.6898 44.1299C64.8898 45.9899 61.0398 48.2999 57.3398 51.1799C63.1098 66.6999 81.5498 93.2899 84.8698 92.3999C87.1798 91.7699 88.0498 90.1199 88.0198 87.7999C87.8998 79.3999 75.8798 62.3199 77.0298 54.2199Z" fill="#1A2A33"></path>
    <path d="M17.9601 78.9997C14.6901 81.2297 13.8701 85.7097 16.1101 88.9697C18.3401 92.2397 22.8201 93.0597 26.0801 90.8197C29.3401 88.5897 30.1601 84.1297 27.9301 80.8597C25.7001 77.5997 21.2201 76.7597 17.9601 78.9997Z" fill="#1A2A33"></path>
</svg>